PathFileType	4	(X/Y/Z)	Walk8.trc
DataRate	CameraRate	NumFrames	NumMarkers	Units	OrigDataRate	OrigDataStartFrame	OrigNumFrames
200.000000	200.000000	6	59	mm	200.000000	344	530
Frame#	Times		LBHD		C7		T10		LPSI		RPSI		RCAR		LElbowM		LTB1		RWRR		LLFC		LUA1		LFHD		RUA1		LACR1		LCAR		RWRU		RFA1		RElbowM		RTH3		LWRU		LFA1		CLAV		STRN		RACR1		RBack		RTB1		RBHD		RTH2		RCAL		RTB4		LWRR		RToe		RTB3		RFHD		RMT1		RTB2		RTH4		RMT5		RElbow		RTH1		LTB3		LElbow		LMT1		RMMAL		LTH1		LTH3		LTH4		RASI		RLFC		LTH2		LCAL		LLMAL		LMT5		LASI		RLMAL		LTB2		LTB4		LToe		LMMAL
			X1	Y1	Z1	X2	Y2	Z2	X3	Y3	Z3	X4	Y4	Z4	X5	Y5	Z5	X6	Y6	Z6	X7	Y7	Z7	X8	Y8	Z8	X9	Y9	Z9	X10	Y10	Z10	X11	Y11	Z11	X12	Y12	Z12	X13	Y13	Z13	X14	Y14	Z14	X15	Y15	Z15	X16	Y16	Z16	X17	Y17	Z17	X18	Y18	Z18	X19	Y19	Z19	X20	Y20	Z20	X21	Y21	Z21	X22	Y22	Z22	X23	Y23	Z23	X24	Y24	Z24	X25	Y25	Z25	X26	Y26	Z26	X27	Y27	Z27	X28	Y28	Z28	X29	Y29	Z29	X30	Y30	Z30	X31	Y31	Z31	X32	Y32	Z32	X33	Y33	Z33	X34	Y34	Z34	X35	Y35	Z35	X36	Y36	Z36	X37	Y37	Z37	X38	Y38	Z38	X39	Y39	Z39	X40	Y40	Z40	X41	Y41	Z41	X42	Y42	Z42	X43	Y43	Z43	X44	Y44	Z44	X45	Y45	Z45	X46	Y46	Z46	X47	Y47	Z47	X48	Y48	Z48	X49	Y49	Z49	X50	Y50	Z50	X51	Y51	Z51	X52	Y52	Z52	X53	Y53	Z53	X54	Y54	Z54	X55	Y55	Z55	X56	Y56	Z56	X57	Y57	Z57	X58	Y58	Z58	X59	Y59	Z59

344	1.72	-10.267	1459.1	-28.216	-19.742	1328.3	34.22	-41.23	1063.3	12.468	-69.59	883.64	-21.688	-68.432	878.08	76.995	58.689	705.41	340.78	22.355	955.18	-198.47	-38.472	315.5	-34.376	97.78	738.72	297.86	-14.855	432.79	-119.5	85.78	1111	-225.25	160.85	1485.8	-12.646	42.745	1104.7	261.05	71.809	1276.5	-129.96	213.35	740.55	-299.62	22.042	727.81	295.49	2.9447	838.35	302.9	-24.896	929.01	208.21	175.78	539.47	175.05	154.5	767.38	-300.29	104.25	879.43	-286.62	108.39	1254.3	39.463	173.5	1150.2	32.325	51.219	1262.7	188.08	-45.222	1223.5	154.01	272.25	336.68	77.405	-8.5271	1467.5	95.02	203	661.35	172.17	237.01	35.644	116.88	283.28	245.72	84.147	205.96	774.81	-246.87	445.2	38.357	69.169	305.72	154.6	83.975	167.54	1496.1	63.721	386.34	57.913	65.981	265.75	244.17	153.46	139.3	625.79	197.54	374.45	38.263	118.75	7.6055	964.66	291.79	104.45	705.67	221.5	-144.36	167.76	-18.912	56.52	995.74	-257.51	-145.39	51.242	-13.315	287.27	71.892	55.502	71.593	714.34	-176	38.949	533.5	-128.01	58.866	623.96	-149.58	158.83	847.6	173.15	226.71	455.53	158.61	120.38	626.33	-111.75	-291.87	100.15	-17.503	-236.78	107.96	-60.716	-176.1	43.81	-68.152	118.26	833.85	-152.37	293.89	65.807	134.44	-118.72	254.79	-95.163	-98.502	246.49	-27.498	-102.28	23.461	-27.471	-218.06	105.17	18.247
345	1.725	-4.4977	1459.7	-27.174	-13.877	1329	35.323	-35.428	1063.9	13.426	-63.541	883.65	-21.372	-62.461	878.57	77.357	65.395	705.59	341.47	28.182	955.81	-196.97	-31.259	315.49	-34.882	104.36	738.73	298.36	-6.14	432.65	-119.79	91.347	1111.6	-224.18	166.62	1486.5	-11.79	49.854	1104.9	261.71	77.597	1277.2	-128.96	218.43	740.83	-298.58	28.689	728	296.28	9.9382	838.61	303.5	-17.723	929.3	208.71	182.18	540.48	175.37	159.57	767.73	-299.15	109.6	879.91	-285.44	114.23	1255	40.403	179.41	1151	33.279	57.317	1263.2	189.14	-39.12	1224	155.22	276.61	336.61	77.638	-2.6285	1468.1	96.052	209.5	662.36	171.86	237.25	35.995	116.9	286.4	245.49	84.249	211.17	775.06	-245.82	445.64	35.644	68.593	307.62	154.06	83.967	173.41	1496.8	64.566	386.9	56.182	65.643	268.8	244.06	153.55	146.07	626.93	198	374.78	36.811	118.59	14.959	964.83	292.32	111.71	706.89	222.09	-139.69	169.65	-19.243	62.066	996.28	-256.25	-143.87	51.629	-13.223	287.98	71.596	55.433	78.256	714.89	-175.44	47.085	533.65	-128.2	66.253	624.33	-149.37	164.88	848.11	173.49	231.81	455.75	158.99	127.85	627.01	-111.64	-288	105.63	-17.011	-233.37	111.73	-60.625	-174.73	45.047	-67.931	124.81	834.62	-151.36	294.52	65.447	134.41	-112.88	256.39	-95.404	-92.495	247.58	-27.896	-102.55	23.41	-27.136	-214.26	108.49	18.185
346	1.73	1.271	1460.5	-26.148	-8.0383	1329.8	36.409	-29.673	1064.7	14.353	-57.512	883.71	-21.109	-56.513	879.15	77.676	72.211	705.91	342.11	33.976	956.61	-195.47	-23.681	315.54	-35.508	111.03	738.9	298.82	2.8906	432.58	-120.15	96.906	1112.4	-223.1	172.4	1487.2	-10.944	57.02	1105.3	262.34	83.365	1278	-127.97	223.39	741.18	-297.54	35.448	728.35	297.02	17.003	839.01	304.07	-10.496	929.75	209.17	188.26	541.49	175.75	164.54	768.2	-298.03	114.89	880.52	-284.26	120.04	1255.8	41.323	185.29	1151.9	34.217	63.404	1263.9	190.18	-33.032	1224.6	156.43	280.75	336.57	77.894	3.2683	1468.9	97.068	215.93	663.3	171.6	237.42	36.303	116.91	289.31	245.32	84.38	216.27	775.4	-244.78	445.96	33.303	68.06	309.36	153.59	83.994	179.28	1497.5	65.405	387.32	54.687	65.341	271.66	244	153.69	152.68	628.12	198.5	375	35.6	118.48	22.372	965.15	292.83	119.03	708.26	222.71	-134.64	171.64	-19.666	67.593	996.96	-255	-142.2	52.049	-13.124	288.56	71.383	55.38	85.016	715.54	-174.89	55.46	533.89	-128.43	73.8	624.79	-149.18	170.9	848.7	173.78	236.71	456	159.39	135.47	627.84	-111.53	-283.69	111.34	-16.53	-229.59	115.69	-60.555	-173.16	46.404	-67.722	131.4	835.58	-150.29	295.03	65.158	134.39	-106.72	258.14	-95.708	-86.128	248.75	-28.396	-102.81	23.372	-26.783	-210.07	111.97	18.096
347	1.735	7.0368	1461.3	-25.14	-2.2329	1330.7	37.476	-23.961	1065.6	15.248	-51.502	883.84	-20.889	-50.585	879.8	77.961	79.14	706.38	342.71	39.734	957.56	-193.96	-15.726	315.65	-36.262	117.81	739.24	299.24	12.223	432.58	-120.56	102.46	1113.2	-222.04	178.19	1488	-10.107	64.23	1105.8	262.93	89.105	1278.9	-126.99	228.24	741.6	-296.49	42.322	728.86	297.73	24.132	839.56	304.61	-3.2278	930.34	209.61	194.02	542.49	176.19	169.42	768.78	-296.93	120.12	881.25	-283.1	125.81	1256.7	42.219	191.13	1152.9	35.137	69.476	1264.7	191.2	-26.962	1225.4	157.62	284.66	336.57	78.179	9.1598	1469.8	98.066	222.24	664.16	171.4	237.52	36.569	116.94	292.03	245.18	84.54	221.27	775.83	-243.73	446.16	31.317	67.571	310.94	153.18	84.054	185.15	1498.4	66.233	387.62	53.415	65.074	274.34	243.98	153.87	159.11	629.34	199.03	375.13	34.615	118.41	29.83	965.61	293.32	126.36	709.73	223.37	-129.2	173.72	-20.183	73.1	997.79	-253.76	-140.39	52.519	-13.023	289.02	71.244	55.344	91.865	716.29	-174.34	64.061	534.22	-128.69	81.5	625.35	-149.01	176.91	849.37	174.04	241.44	456.27	159.8	143.21	628.82	-111.41	-278.9	117.25	-16.066	-225.44	119.82	-60.507	-171.38	47.892	-67.534	138.03	836.74	-149.17	295.44	64.931	134.37	-100.24	260.03	-96.074	-79.394	249.99	-28.997	-103.05	23.355	-26.427	-205.47	115.58	17.982
348	1.74	12.797	1462.3	-24.155	3.5345	1331.7	38.52	-18.288	1066.6	16.112	-45.511	884.02	-20.703	-44.674	880.52	78.219	86.184	707	343.25	45.446	958.67	-192.46	-7.3852	315.83	-37.148	124.69	739.74	299.62	21.84	432.64	-121.03	108.01	1114.2	-220.99	183.97	1488.9	-9.2802	71.469	1106.4	263.49	94.811	1279.9	-126.02	232.99	742.1	-295.44	49.311	729.52	298.39	31.32	840.26	305.12	4.0682	931.09	210.01	199.42	543.46	176.68	174.21	769.48	-295.86	125.29	882.11	-281.95	131.54	1257.8	43.089	196.93	1154	36.035	75.53	1265.7	192.17	-20.912	1226.3	158.8	288.34	336.58	78.496	15.042	1470.7	99.044	228.43	664.93	171.29	237.58	36.794	116.96	294.56	245.08	84.73	226.16	776.35	-242.68	446.28	29.661	67.122	312.38	152.84	84.144	191.02	1499.3	67.051	387.83	52.35	64.84	276.83	243.99	154.07	165.33	630.58	199.6	375.19	33.833	118.37	37.317	966.23	293.78	133.65	711.27	224.06	-123.37	175.9	-20.791	78.583	998.75	-252.54	-138.4	53.057	-12.925	289.38	71.17	55.324	98.793	717.13	-173.81	72.871	534.64	-128.99	89.342	626	-148.87	182.89	850.11	174.27	245.98	456.54	160.22	151.09	629.93	-111.29	-273.64	123.34	-15.624	-220.89	124.11	-60.481	-169.37	49.525	-67.373	144.7	838.09	-148.01	295.77	64.756	134.37	-93.441	262.05	-96.497	-72.289	251.3	-29.697	-103.24	23.369	-26.082	-200.45	119.32	17.844
349	1.745	18.549	1463.3	-23.194	9.2598	1332.8	39.54	-12.647	1067.6	16.945	-39.538	884.25	-20.539	-38.78	881.31	78.458	93.346	707.76	343.73	51.105	959.91	-190.99	1.3491	316.08	-38.17	131.7	740.43	299.96	31.721	432.77	-121.55	113.55	1115.4	-219.95	189.74	1489.9	-8.4647	78.722	1107.2	264.03	100.48	1281.1	-125.06	237.65	742.67	-294.39	56.415	730.33	299	38.56	841.09	305.59	11.377	931.97	210.4	204.47	544.38	177.22	178.93	770.29	-294.82	130.4	883.09	-280.82	137.23	1258.9	43.93	202.7	1155.2	36.906	81.56	1266.7	193.11	-14.886	1227.3	159.96	291.79	336.61	78.849	20.912	1471.8	99.998	234.48	665.58	171.29	237.6	36.98	116.99	296.9	245	84.947	230.95	776.95	-241.64	446.33	28.306	66.711	313.67	152.54	84.26	196.88	1500.3	67.857	387.95	51.47	64.633	279.13	244.02	154.31	171.31	631.8	200.2	375.2	33.231	118.35	44.817	966.98	294.23	140.89	712.86	224.76	-117.16	178.15	-21.487	84.037	999.83	-251.35	-136.22	53.685	-12.839	289.66	71.148	55.319	105.79	718.06	-173.28	81.872	535.15	-129.31	97.312	626.73	-148.76	188.86	850.91	174.49	250.33	456.82	160.65	159.07	631.18	-111.18	-267.91	129.57	-15.207	-215.95	128.55	-60.474	-167.1	51.318	-67.25	151.42	839.62	-146.83	296.03	64.624	134.37	-86.329	264.21	-96.97	-64.812	252.67	-30.489	-103.34	23.427	-25.766	-195.02	123.15	17.684
